<mxfile host="app.diagrams.net" modified="2021-01-14T03:25:48.204Z" agent="5.0 (Windows NT 10.0; Win64; x64) AppleWebKit/537.36 (KHTML, like Gecko) Chrome/87.0.4280.141 Safari/537.36" etag="5hdDlsRFsP2eba4W36ry" version="14.2.2" type="github">
  <diagram id="_KXm9FjtC93ZwVqki_WM" name="Page-1">
    <mxGraphModel dx="1185" dy="635" grid="1" gridSize="10" guides="1" tooltips="1" connect="1" arrows="1" fold="1" page="1" pageScale="1" pageWidth="827" pageHeight="1169" math="0" shadow="0">
      <root>
        <mxCell id="0" />
        <mxCell id="1" parent="0" />
        <mxCell id="-_fd9rpGxrSI4Euc9Kwn-30" value="" style="rounded=0;whiteSpace=wrap;html=1;" vertex="1" parent="1">
          <mxGeometry y="470" width="800" height="450" as="geometry" />
        </mxCell>
        <mxCell id="-_fd9rpGxrSI4Euc9Kwn-44" value="" style="rounded=0;whiteSpace=wrap;html=1;fillColor=#E1FF1F;" vertex="1" parent="1">
          <mxGeometry x="170" y="500" width="480" height="100" as="geometry" />
        </mxCell>
        <mxCell id="-_fd9rpGxrSI4Euc9Kwn-35" style="edgeStyle=orthogonalEdgeStyle;rounded=0;orthogonalLoop=1;jettySize=auto;html=1;entryX=0;entryY=0.5;entryDx=0;entryDy=0;" edge="1" parent="1" source="-_fd9rpGxrSI4Euc9Kwn-30" target="-_fd9rpGxrSI4Euc9Kwn-13">
          <mxGeometry relative="1" as="geometry" />
        </mxCell>
        <mxCell id="-_fd9rpGxrSI4Euc9Kwn-36" value="/serviceAccount 需要 clientId和client_credentials" style="edgeLabel;html=1;align=center;verticalAlign=middle;resizable=0;points=[];" vertex="1" connectable="0" parent="-_fd9rpGxrSI4Euc9Kwn-35">
          <mxGeometry x="-0.2564" y="-1" relative="1" as="geometry">
            <mxPoint as="offset" />
          </mxGeometry>
        </mxCell>
        <mxCell id="-_fd9rpGxrSI4Euc9Kwn-4" style="edgeStyle=orthogonalEdgeStyle;rounded=0;orthogonalLoop=1;jettySize=auto;html=1;entryX=0.5;entryY=0;entryDx=0;entryDy=0;" edge="1" parent="1" source="-_fd9rpGxrSI4Euc9Kwn-2">
          <mxGeometry relative="1" as="geometry">
            <mxPoint x="385" y="159.99999999999977" as="targetPoint" />
          </mxGeometry>
        </mxCell>
        <mxCell id="-_fd9rpGxrSI4Euc9Kwn-2" value="Actor" style="shape=umlActor;verticalLabelPosition=bottom;verticalAlign=top;html=1;" vertex="1" parent="1">
          <mxGeometry x="370" width="30" height="60" as="geometry" />
        </mxCell>
        <mxCell id="-_fd9rpGxrSI4Euc9Kwn-6" style="edgeStyle=orthogonalEdgeStyle;rounded=0;orthogonalLoop=1;jettySize=auto;html=1;exitX=0.019;exitY=1;exitDx=0;exitDy=0;exitPerimeter=0;entryX=0.065;entryY=0;entryDx=0;entryDy=0;entryPerimeter=0;" edge="1" parent="1" source="-_fd9rpGxrSI4Euc9Kwn-19" target="-_fd9rpGxrSI4Euc9Kwn-30">
          <mxGeometry relative="1" as="geometry">
            <mxPoint x="75" y="500" as="targetPoint" />
          </mxGeometry>
        </mxCell>
        <mxCell id="-_fd9rpGxrSI4Euc9Kwn-10" style="edgeStyle=orthogonalEdgeStyle;rounded=0;orthogonalLoop=1;jettySize=auto;html=1;exitX=0.901;exitY=1;exitDx=0;exitDy=0;exitPerimeter=0;entryX=0.93;entryY=0.021;entryDx=0;entryDy=0;entryPerimeter=0;" edge="1" parent="1" source="-_fd9rpGxrSI4Euc9Kwn-19" target="-_fd9rpGxrSI4Euc9Kwn-30">
          <mxGeometry relative="1" as="geometry">
            <mxPoint x="675" y="480" as="targetPoint" />
          </mxGeometry>
        </mxCell>
        <mxCell id="-_fd9rpGxrSI4Euc9Kwn-12" style="edgeStyle=orthogonalEdgeStyle;rounded=0;orthogonalLoop=1;jettySize=auto;html=1;exitX=1;exitY=0.5;exitDx=0;exitDy=0;entryX=0.57;entryY=0.042;entryDx=0;entryDy=0;entryPerimeter=0;" edge="1" parent="1" source="-_fd9rpGxrSI4Euc9Kwn-19" target="-_fd9rpGxrSI4Euc9Kwn-23">
          <mxGeometry relative="1" as="geometry">
            <mxPoint x="950" y="400" as="targetPoint" />
          </mxGeometry>
        </mxCell>
        <mxCell id="-_fd9rpGxrSI4Euc9Kwn-14" value="/sso/login" style="edgeLabel;html=1;align=center;verticalAlign=middle;resizable=0;points=[];" vertex="1" connectable="0" parent="-_fd9rpGxrSI4Euc9Kwn-12">
          <mxGeometry x="0.5519" y="-1" relative="1" as="geometry">
            <mxPoint y="-67.33" as="offset" />
          </mxGeometry>
        </mxCell>
        <mxCell id="-_fd9rpGxrSI4Euc9Kwn-15" value="/sso/logout" style="edgeLabel;html=1;align=center;verticalAlign=middle;resizable=0;points=[];" vertex="1" connectable="0" parent="-_fd9rpGxrSI4Euc9Kwn-12">
          <mxGeometry x="0.7316" y="3" relative="1" as="geometry">
            <mxPoint y="-69" as="offset" />
          </mxGeometry>
        </mxCell>
        <mxCell id="-_fd9rpGxrSI4Euc9Kwn-16" value="/sso/refersh" style="edgeLabel;html=1;align=center;verticalAlign=middle;resizable=0;points=[];" vertex="1" connectable="0" parent="-_fd9rpGxrSI4Euc9Kwn-12">
          <mxGeometry x="0.8961" y="-2" relative="1" as="geometry">
            <mxPoint y="-64.83" as="offset" />
          </mxGeometry>
        </mxCell>
        <mxCell id="-_fd9rpGxrSI4Euc9Kwn-20" value="/serviceAccount/，需要 clientId和client_credentials" style="edgeLabel;html=1;align=center;verticalAlign=middle;resizable=0;points=[];" vertex="1" connectable="0" parent="-_fd9rpGxrSI4Euc9Kwn-12">
          <mxGeometry x="-0.5385" y="1" relative="1" as="geometry">
            <mxPoint as="offset" />
          </mxGeometry>
        </mxCell>
        <mxCell id="-_fd9rpGxrSI4Euc9Kwn-21" style="edgeStyle=orthogonalEdgeStyle;rounded=0;orthogonalLoop=1;jettySize=auto;html=1;exitX=0.5;exitY=1;exitDx=0;exitDy=0;entryX=0.426;entryY=-0.208;entryDx=0;entryDy=0;entryPerimeter=0;" edge="1" parent="1" source="-_fd9rpGxrSI4Euc9Kwn-3" target="-_fd9rpGxrSI4Euc9Kwn-19">
          <mxGeometry relative="1" as="geometry" />
        </mxCell>
        <mxCell id="-_fd9rpGxrSI4Euc9Kwn-3" value="网关" style="html=1;" vertex="1" parent="1">
          <mxGeometry x="330" y="140" width="110" height="50" as="geometry" />
        </mxCell>
        <mxCell id="-_fd9rpGxrSI4Euc9Kwn-5" value="/sso/login&lt;br&gt;/sso/logout/&lt;br&gt;/sso/refresh&lt;br&gt;/user/info/&lt;br&gt;/user/resetPassword&lt;br&gt;/order/list&lt;br&gt;/pay/list" style="shape=note2;boundedLbl=1;whiteSpace=wrap;html=1;size=25;verticalAlign=top;align=center;" vertex="1" parent="1">
          <mxGeometry x="620" width="290" height="150" as="geometry" />
        </mxCell>
        <mxCell id="-_fd9rpGxrSI4Euc9Kwn-41" style="edgeStyle=orthogonalEdgeStyle;rounded=0;orthogonalLoop=1;jettySize=auto;html=1;entryX=0;entryY=0.5;entryDx=0;entryDy=0;" edge="1" parent="1" source="-_fd9rpGxrSI4Euc9Kwn-7" target="-_fd9rpGxrSI4Euc9Kwn-9">
          <mxGeometry relative="1" as="geometry">
            <Array as="points">
              <mxPoint x="105" y="870" />
              <mxPoint x="280" y="870" />
            </Array>
          </mxGeometry>
        </mxCell>
        <mxCell id="-_fd9rpGxrSI4Euc9Kwn-42" value="将用户access_token放入请求头，将service account放入请求头" style="edgeLabel;html=1;align=center;verticalAlign=middle;resizable=0;points=[];" vertex="1" connectable="0" parent="-_fd9rpGxrSI4Euc9Kwn-41">
          <mxGeometry x="-0.1754" y="-2" relative="1" as="geometry">
            <mxPoint as="offset" />
          </mxGeometry>
        </mxCell>
        <mxCell id="-_fd9rpGxrSI4Euc9Kwn-46" style="edgeStyle=orthogonalEdgeStyle;rounded=0;orthogonalLoop=1;jettySize=auto;html=1;exitX=0.5;exitY=0;exitDx=0;exitDy=0;entryX=0;entryY=0.5;entryDx=0;entryDy=0;" edge="1" parent="1" source="-_fd9rpGxrSI4Euc9Kwn-7" target="-_fd9rpGxrSI4Euc9Kwn-44">
          <mxGeometry relative="1" as="geometry" />
        </mxCell>
        <mxCell id="-_fd9rpGxrSI4Euc9Kwn-7" value="provider-user" style="html=1;" vertex="1" parent="1">
          <mxGeometry x="30" y="620" width="150" height="70" as="geometry" />
        </mxCell>
        <mxCell id="-_fd9rpGxrSI4Euc9Kwn-39" style="edgeStyle=orthogonalEdgeStyle;rounded=0;orthogonalLoop=1;jettySize=auto;html=1;" edge="1" parent="1" source="-_fd9rpGxrSI4Euc9Kwn-9" target="-_fd9rpGxrSI4Euc9Kwn-11">
          <mxGeometry relative="1" as="geometry">
            <Array as="points">
              <mxPoint x="360" y="870" />
              <mxPoint x="695" y="870" />
            </Array>
          </mxGeometry>
        </mxCell>
        <mxCell id="-_fd9rpGxrSI4Euc9Kwn-40" value="/pay&amp;nbsp; &amp;nbsp;order服务不允许调用pay服务" style="edgeLabel;html=1;align=center;verticalAlign=middle;resizable=0;points=[];" vertex="1" connectable="0" parent="-_fd9rpGxrSI4Euc9Kwn-39">
          <mxGeometry x="0.1071" y="-4" relative="1" as="geometry">
            <mxPoint as="offset" />
          </mxGeometry>
        </mxCell>
        <mxCell id="-_fd9rpGxrSI4Euc9Kwn-47" style="edgeStyle=orthogonalEdgeStyle;rounded=0;orthogonalLoop=1;jettySize=auto;html=1;exitX=0.5;exitY=0;exitDx=0;exitDy=0;entryX=0.479;entryY=1;entryDx=0;entryDy=0;entryPerimeter=0;" edge="1" parent="1" source="-_fd9rpGxrSI4Euc9Kwn-9" target="-_fd9rpGxrSI4Euc9Kwn-44">
          <mxGeometry relative="1" as="geometry" />
        </mxCell>
        <mxCell id="-_fd9rpGxrSI4Euc9Kwn-9" value="provider-order" style="html=1;" vertex="1" parent="1">
          <mxGeometry x="320" y="620" width="160" height="70" as="geometry" />
        </mxCell>
        <mxCell id="-_fd9rpGxrSI4Euc9Kwn-48" style="edgeStyle=orthogonalEdgeStyle;rounded=0;orthogonalLoop=1;jettySize=auto;html=1;exitX=0.5;exitY=0;exitDx=0;exitDy=0;entryX=1;entryY=0.5;entryDx=0;entryDy=0;" edge="1" parent="1" source="-_fd9rpGxrSI4Euc9Kwn-11" target="-_fd9rpGxrSI4Euc9Kwn-44">
          <mxGeometry relative="1" as="geometry" />
        </mxCell>
        <mxCell id="-_fd9rpGxrSI4Euc9Kwn-11" value="provider-pay" style="html=1;" vertex="1" parent="1">
          <mxGeometry x="620" y="630" width="150" height="70" as="geometry" />
        </mxCell>
        <mxCell id="-_fd9rpGxrSI4Euc9Kwn-13" value="sso" style="html=1;" vertex="1" parent="1">
          <mxGeometry x="1256" y="605" width="140" height="60" as="geometry" />
        </mxCell>
        <mxCell id="-_fd9rpGxrSI4Euc9Kwn-33" style="edgeStyle=orthogonalEdgeStyle;rounded=0;orthogonalLoop=1;jettySize=auto;html=1;entryX=0.5;entryY=0;entryDx=0;entryDy=0;" edge="1" parent="1" source="-_fd9rpGxrSI4Euc9Kwn-19" target="-_fd9rpGxrSI4Euc9Kwn-30">
          <mxGeometry relative="1" as="geometry" />
        </mxCell>
        <mxCell id="-_fd9rpGxrSI4Euc9Kwn-19" value="携带gateway的service account" style="rounded=1;whiteSpace=wrap;html=1;" vertex="1" parent="1">
          <mxGeometry x="234" y="210" width="360" height="20" as="geometry" />
        </mxCell>
        <mxCell id="-_fd9rpGxrSI4Euc9Kwn-24" style="edgeStyle=orthogonalEdgeStyle;rounded=0;orthogonalLoop=1;jettySize=auto;html=1;entryX=0.5;entryY=0;entryDx=0;entryDy=0;" edge="1" parent="1" target="-_fd9rpGxrSI4Euc9Kwn-13">
          <mxGeometry relative="1" as="geometry">
            <mxPoint x="1331" y="572" as="sourcePoint" />
          </mxGeometry>
        </mxCell>
        <mxCell id="-_fd9rpGxrSI4Euc9Kwn-23" value="需要service account 的 audience 验证" style="rounded=0;whiteSpace=wrap;html=1;" vertex="1" parent="1">
          <mxGeometry x="1241" y="530" width="155" height="40" as="geometry" />
        </mxCell>
        <mxCell id="-_fd9rpGxrSI4Euc9Kwn-26" style="edgeStyle=orthogonalEdgeStyle;rounded=0;orthogonalLoop=1;jettySize=auto;html=1;" edge="1" parent="1" source="-_fd9rpGxrSI4Euc9Kwn-25">
          <mxGeometry relative="1" as="geometry">
            <mxPoint x="1361" y="290" as="targetPoint" />
          </mxGeometry>
        </mxCell>
        <mxCell id="-_fd9rpGxrSI4Euc9Kwn-25" value="用户名，密码" style="shape=note2;boundedLbl=1;whiteSpace=wrap;html=1;size=25;verticalAlign=top;align=center;" vertex="1" parent="1">
          <mxGeometry x="1471" y="260" width="120" height="60" as="geometry" />
        </mxCell>
        <mxCell id="-_fd9rpGxrSI4Euc9Kwn-27" value="access_token和refresh_token" style="shape=note2;boundedLbl=1;whiteSpace=wrap;html=1;size=25;verticalAlign=top;align=center;" vertex="1" parent="1">
          <mxGeometry x="1471" y="350" width="130" height="70" as="geometry" />
        </mxCell>
        <mxCell id="-_fd9rpGxrSI4Euc9Kwn-32" value="需要service account 的 audience 验证，去sso获取验证service account的密钥" style="text;html=1;strokeColor=none;fillColor=none;align=center;verticalAlign=middle;whiteSpace=wrap;rounded=0;" vertex="1" parent="1">
          <mxGeometry x="70" y="500" width="630" height="40" as="geometry" />
        </mxCell>
        <mxCell id="-_fd9rpGxrSI4Euc9Kwn-34" value="需要用户的access_token，验证，去sso获取验证access_token的密钥，由于密钥动态更新，若密钥验证错误，则执行第二次再次获取密钥再验证。" style="text;html=1;strokeColor=none;fillColor=none;align=center;verticalAlign=middle;whiteSpace=wrap;rounded=0;" vertex="1" parent="1">
          <mxGeometry x="180" y="560" width="440" height="30" as="geometry" />
        </mxCell>
      </root>
    </mxGraphModel>
  </diagram>
</mxfile>
